/* XPM */
static char * exemple_xpm[] = {
"24 20 3 1",
" 	c None",
".	c #013A32E4",
"+	c #01E43232",
"                        ",
"    ..                  ",
"   ....                 ",
"  ......++++++++        ",
" .........+++++++       ",
" ..........+++++++      ",
" ............++++++     ",
" .............++++++    ",
"  ..............++++    ",
"   +.............+++    ",
"   ++.............++    ",
"   +++.............+    ",
"   +++++.............   ",
"   ++++++.............. ",
"   ++++++++............ ",
"   +++++++++........... ",
"    +++++++++.........  ",
"     ++++++++++.......  ",
"      ++++++++++.....   ",
"       +++++++++ ...    "};